# xmcd
#
# Track frame offsets:
#	150
#	19122
#	27882
#	40327
#	49078
#	68879
#	83067
#	95076
#	110211
#	121043
#	135341
#	152445
#	168156
#	178839
#
# Disc length: 2561 seconds
#
# Revision: 0
# Processed by: cddbd v1.5.2PL0 Copyright (c) Steve Scherf et al.
# Submitted via: audiograbber 1.83.01
#
DISCID=af09ff0e
DTITLE=Various Artist - Country Gospel Oh Happy Day
DYEAR=2009
DGENRE=Country Gospel
TTITLE0=T. Graham Brown - Oh Happy Day
TTITLE1=Ray Price - Take My Hand Precious Lord
TTITLE2=Bill Anderson - I Saw The Light
TTITLE3=Gatlin Brothers - Swing Low Sweet Chariot
TTITLE4=Brenda Lee - What A Friend We Have In Jesus
TTITLE5=Ed Bruce - He Lives
TTITLE6=Jordanaires - Crying In The Chapel
TTITLE7=Lee Greenwood - Amen
TTITLE8=Mickey Gilley - When They Ring Those Golden Bells
TTITLE9=Eddy Raven - Leaning On The Everlasting Arms
TTITLE10=Holly Dunn - Softly And Tenderly
TTITLE11=Wanda Jackson - Jesus Is The Answer
TTITLE12=Charlie Louvin - In The Sweet Bye And Bye
TTITLE13=Willie Nelson and Patsy Cline - Just A Closer Walk With Thee
EXTD=
EXTT0=
EXTT1=
EXTT2=
EXTT3=
EXTT4=
EXTT5=
EXTT6=
EXTT7=
EXTT8=
EXTT9=
EXTT10=
EXTT11=
EXTT12=
EXTT13=
PLAYORDER=
